<mxfile host="app.diagrams.net" agent="Mozilla/5.0 (Windows NT 10.0; Win64; x64) AppleWebKit/537.36 (KHTML, like Gecko) Chrome/131.0.0.0 Safari/537.36 Edg/131.0.0.0" version="24.8.6">
  <diagram name="Page-1" id="5zqixK-nCG77aAulJHSP">
    <mxGraphModel dx="1042" dy="565" grid="1" gridSize="10" guides="1" tooltips="1" connect="1" arrows="1" fold="1" page="1" pageScale="1" pageWidth="850" pageHeight="1100" math="0" shadow="0">
      <root>
        <mxCell id="0" />
        <mxCell id="1" parent="0" />
        <mxCell id="Yh08Uav-d2ell8X6agev-14" value="" style="edgeStyle=orthogonalEdgeStyle;rounded=0;orthogonalLoop=1;jettySize=auto;html=1;" edge="1" parent="1" source="Yh08Uav-d2ell8X6agev-1" target="Yh08Uav-d2ell8X6agev-3">
          <mxGeometry relative="1" as="geometry" />
        </mxCell>
        <mxCell id="Yh08Uav-d2ell8X6agev-1" value="Start" style="ellipse;whiteSpace=wrap;html=1;" vertex="1" parent="1">
          <mxGeometry x="170" width="120" height="80" as="geometry" />
        </mxCell>
        <mxCell id="Yh08Uav-d2ell8X6agev-15" value="" style="edgeStyle=orthogonalEdgeStyle;rounded=0;orthogonalLoop=1;jettySize=auto;html=1;" edge="1" parent="1" source="Yh08Uav-d2ell8X6agev-3" target="Yh08Uav-d2ell8X6agev-4">
          <mxGeometry relative="1" as="geometry" />
        </mxCell>
        <mxCell id="Yh08Uav-d2ell8X6agev-3" value="Nhập a,b,c" style="shape=parallelogram;perimeter=parallelogramPerimeter;whiteSpace=wrap;html=1;fixedSize=1;" vertex="1" parent="1">
          <mxGeometry x="170" y="120" width="120" height="60" as="geometry" />
        </mxCell>
        <mxCell id="Yh08Uav-d2ell8X6agev-16" value="" style="edgeStyle=orthogonalEdgeStyle;rounded=0;orthogonalLoop=1;jettySize=auto;html=1;" edge="1" parent="1" source="Yh08Uav-d2ell8X6agev-4" target="Yh08Uav-d2ell8X6agev-5">
          <mxGeometry relative="1" as="geometry" />
        </mxCell>
        <mxCell id="Yh08Uav-d2ell8X6agev-17" value="" style="edgeStyle=orthogonalEdgeStyle;rounded=0;orthogonalLoop=1;jettySize=auto;html=1;" edge="1" parent="1" source="Yh08Uav-d2ell8X6agev-4" target="Yh08Uav-d2ell8X6agev-6">
          <mxGeometry relative="1" as="geometry" />
        </mxCell>
        <mxCell id="Yh08Uav-d2ell8X6agev-4" value="a = 0" style="rhombus;whiteSpace=wrap;html=1;" vertex="1" parent="1">
          <mxGeometry x="190" y="220" width="80" height="80" as="geometry" />
        </mxCell>
        <mxCell id="Yh08Uav-d2ell8X6agev-22" style="edgeStyle=orthogonalEdgeStyle;rounded=0;orthogonalLoop=1;jettySize=auto;html=1;exitX=1;exitY=0.5;exitDx=0;exitDy=0;entryX=1;entryY=0.5;entryDx=0;entryDy=0;" edge="1" parent="1" source="Yh08Uav-d2ell8X6agev-5" target="Yh08Uav-d2ell8X6agev-9">
          <mxGeometry relative="1" as="geometry" />
        </mxCell>
        <mxCell id="Yh08Uav-d2ell8X6agev-25" style="edgeStyle=orthogonalEdgeStyle;rounded=0;orthogonalLoop=1;jettySize=auto;html=1;exitX=1;exitY=0.5;exitDx=0;exitDy=0;entryX=1;entryY=0.75;entryDx=0;entryDy=0;" edge="1" parent="1" source="Yh08Uav-d2ell8X6agev-5" target="Yh08Uav-d2ell8X6agev-11">
          <mxGeometry relative="1" as="geometry" />
        </mxCell>
        <mxCell id="Yh08Uav-d2ell8X6agev-29" style="edgeStyle=orthogonalEdgeStyle;rounded=0;orthogonalLoop=1;jettySize=auto;html=1;exitX=1;exitY=0.5;exitDx=0;exitDy=0;entryX=0.5;entryY=0;entryDx=0;entryDy=0;" edge="1" parent="1" source="Yh08Uav-d2ell8X6agev-5" target="Yh08Uav-d2ell8X6agev-13">
          <mxGeometry relative="1" as="geometry" />
        </mxCell>
        <mxCell id="Yh08Uav-d2ell8X6agev-5" value="PT bậc 1" style="rounded=0;whiteSpace=wrap;html=1;" vertex="1" parent="1">
          <mxGeometry x="370" y="230" width="120" height="60" as="geometry" />
        </mxCell>
        <mxCell id="Yh08Uav-d2ell8X6agev-18" value="" style="edgeStyle=orthogonalEdgeStyle;rounded=0;orthogonalLoop=1;jettySize=auto;html=1;" edge="1" parent="1" source="Yh08Uav-d2ell8X6agev-6" target="Yh08Uav-d2ell8X6agev-7">
          <mxGeometry relative="1" as="geometry" />
        </mxCell>
        <mxCell id="Yh08Uav-d2ell8X6agev-6" value="detla = b^2-4*a*c" style="rounded=0;whiteSpace=wrap;html=1;" vertex="1" parent="1">
          <mxGeometry x="170" y="330" width="120" height="60" as="geometry" />
        </mxCell>
        <mxCell id="Yh08Uav-d2ell8X6agev-19" value="" style="edgeStyle=orthogonalEdgeStyle;rounded=0;orthogonalLoop=1;jettySize=auto;html=1;" edge="1" parent="1" source="Yh08Uav-d2ell8X6agev-7" target="Yh08Uav-d2ell8X6agev-8">
          <mxGeometry relative="1" as="geometry" />
        </mxCell>
        <mxCell id="Yh08Uav-d2ell8X6agev-23" value="" style="edgeStyle=orthogonalEdgeStyle;rounded=0;orthogonalLoop=1;jettySize=auto;html=1;" edge="1" parent="1" source="Yh08Uav-d2ell8X6agev-7" target="Yh08Uav-d2ell8X6agev-9">
          <mxGeometry relative="1" as="geometry" />
        </mxCell>
        <mxCell id="Yh08Uav-d2ell8X6agev-7" value="delta &amp;lt; 0" style="rhombus;whiteSpace=wrap;html=1;" vertex="1" parent="1">
          <mxGeometry x="190" y="430" width="80" height="80" as="geometry" />
        </mxCell>
        <mxCell id="Yh08Uav-d2ell8X6agev-20" value="" style="edgeStyle=orthogonalEdgeStyle;rounded=0;orthogonalLoop=1;jettySize=auto;html=1;" edge="1" parent="1" source="Yh08Uav-d2ell8X6agev-8" target="Yh08Uav-d2ell8X6agev-12">
          <mxGeometry relative="1" as="geometry" />
        </mxCell>
        <mxCell id="Yh08Uav-d2ell8X6agev-24" value="" style="edgeStyle=orthogonalEdgeStyle;rounded=0;orthogonalLoop=1;jettySize=auto;html=1;" edge="1" parent="1" source="Yh08Uav-d2ell8X6agev-8" target="Yh08Uav-d2ell8X6agev-11">
          <mxGeometry relative="1" as="geometry" />
        </mxCell>
        <mxCell id="Yh08Uav-d2ell8X6agev-8" value="delta = 0" style="rhombus;whiteSpace=wrap;html=1;" vertex="1" parent="1">
          <mxGeometry x="190" y="540" width="80" height="80" as="geometry" />
        </mxCell>
        <mxCell id="Yh08Uav-d2ell8X6agev-9" value="PT vô nghiệm" style="rounded=0;whiteSpace=wrap;html=1;" vertex="1" parent="1">
          <mxGeometry x="370" y="440" width="120" height="60" as="geometry" />
        </mxCell>
        <mxCell id="Yh08Uav-d2ell8X6agev-11" value="PT có nghiệm kép&lt;div&gt;x = -b/2*a&lt;/div&gt;" style="rounded=0;whiteSpace=wrap;html=1;" vertex="1" parent="1">
          <mxGeometry x="370" y="550" width="120" height="60" as="geometry" />
        </mxCell>
        <mxCell id="Yh08Uav-d2ell8X6agev-21" style="edgeStyle=orthogonalEdgeStyle;rounded=0;orthogonalLoop=1;jettySize=auto;html=1;exitX=0.5;exitY=1;exitDx=0;exitDy=0;" edge="1" parent="1" source="Yh08Uav-d2ell8X6agev-12" target="Yh08Uav-d2ell8X6agev-13">
          <mxGeometry relative="1" as="geometry" />
        </mxCell>
        <mxCell id="Yh08Uav-d2ell8X6agev-12" value="PT có 2 nghiệm phân biệt&lt;br&gt;x1=(-b+sqrt(dt))/(2*a)&lt;div&gt;x2=9-b-sqrt(dt))/(2*a)&lt;/div&gt;" style="rounded=0;whiteSpace=wrap;html=1;" vertex="1" parent="1">
          <mxGeometry x="70" y="660" width="240" height="60" as="geometry" />
        </mxCell>
        <mxCell id="Yh08Uav-d2ell8X6agev-13" value="End" style="ellipse;whiteSpace=wrap;html=1;" vertex="1" parent="1">
          <mxGeometry x="305" y="990" width="120" height="80" as="geometry" />
        </mxCell>
        <mxCell id="Yh08Uav-d2ell8X6agev-30" value="True" style="text;html=1;align=center;verticalAlign=middle;whiteSpace=wrap;rounded=0;" vertex="1" parent="1">
          <mxGeometry x="305" y="230" width="60" height="30" as="geometry" />
        </mxCell>
        <mxCell id="Yh08Uav-d2ell8X6agev-31" value="True" style="text;html=1;align=center;verticalAlign=middle;whiteSpace=wrap;rounded=0;" vertex="1" parent="1">
          <mxGeometry x="310" y="440" width="60" height="30" as="geometry" />
        </mxCell>
        <mxCell id="Yh08Uav-d2ell8X6agev-32" value="True" style="text;html=1;align=center;verticalAlign=middle;whiteSpace=wrap;rounded=0;" vertex="1" parent="1">
          <mxGeometry x="310" y="550" width="60" height="30" as="geometry" />
        </mxCell>
      </root>
    </mxGraphModel>
  </diagram>
</mxfile>
